<svg xmlns="http://www.w3.org/2000/svg" xml:space="preserve" fill-rule="evenodd" stroke-linejoin="round" stroke-miterlimit="2" clip-rule="evenodd" viewBox="0 0 598 160">
  <text x="317.549" y="3025.14" font-family="Helvetica" font-size="12" transform="matrix(5.35875 0 0 5.35876 -1498.034 -16129.007)">M<tspan x="326.945" y="3025.14">Y</tspan></text>
  <g font-family="&quot;Helvetica-Bold&quot;,&quot;Helvetica&quot;" font-size="12" font-weight="700">
    <text x="317.549" y="3025.14" transform="matrix(5.35875 0 0 5.35876 -1408.147 -16130.281)">C<tspan x="325.615px 334.349px" y="3025.14px 3025.14px">OM</tspan></text>
    <text x="343.745" y="3025.14" transform="matrix(5.35875 0 0 5.35876 -1408.147 -16130.281)">P</text>
    <text x="350.309" y="3025.14" transform="matrix(5.35875 0 0 5.35876 -1408.147 -16130.281)">A<tspan x="358.375px 366.441px" y="3025.14px 3025.14px">NY</tspan></text>
  </g>
  <text x="317.549" y="3025.14" font-family="Helvetica" font-size="12" transform="matrix(3.06835 0 0 3.06836 -766.483 -9164.983)">f<tspan x="320.283px 323.679px 329.753px 335.827px 337.893px 343.967px 350.04px 356.114px 358.848px 368.244px" y="3025.14px 3025.14px 3025.14px 3025.14px 3025.14px 3025.14px 3025.14px 3025.14px 3025.14px 3025.14px">reelogo.me</tspan></text>
  <path d="M80.004.003c44.154 0 80 35.846 80 80s-35.846 80-80 80c-44.149 0-80-35.846-80-80s35.851-80 80-80Zm22.531 129.451a49.922 49.922 0 0 1-5.12-1.348 56.365 56.365 0 0 0-34.817 0 50.312 50.312 0 0 1-5.12 1.348 49.263 49.263 0 0 0 22.526 21.978 49.249 49.249 0 0 0 22.531-21.978Zm-54.091-5.217A111.404 111.404 0 0 0 25.918 85.22v-.006a49.25 49.25 0 0 0-7.771 30.503 49.243 49.243 0 0 0 30.297 8.52Zm85.651-39.023a111.53 111.53 0 0 0-22.531 39.023 49.26 49.26 0 0 0 30.303-8.52 49.25 49.25 0 0 0-7.772-30.503ZM25.918 74.786a111.404 111.404 0 0 0 22.526-39.017 49.206 49.206 0 0 0-30.297 8.52 49.223 49.223 0 0 0 7.771 30.497Zm85.646-39.017a111.506 111.506 0 0 0 22.531 39.017 49.223 49.223 0 0 0 7.772-30.497 49.223 49.223 0 0 0-30.303-8.52Zm-54.086-5.217c.149.034.303.062.457.097a105.073 105.073 0 0 0 44.143 0c.155-.035.303-.063.457-.097A49.22 49.22 0 0 0 80.004 8.574a49.235 49.235 0 0 0-22.526 21.978Z"/>
</svg>
